<svg id="visual" viewBox="0 0 400 400" width="400" height="400" xmlns="http://www.w3.org/2000/svg" xmlns:xlink="http://www.w3.org/1999/xlink" version="1.1"><rect x="0" y="0" width="400" height="400" fill="#fa7268"></rect><g transform="translate(220.4683951246538 182.35488421938464)"><path d="M57.3 -75.5C85.2 -58.6 126.3 -56.5 131.3 -42.4C136.3 -28.2 105.3 -2.1 90.5 25.1C75.7 52.2 77.2 80.3 64.9 106.1C52.5 131.9 26.3 155.5 -3 159.6C-32.3 163.8 -64.7 148.7 -96.4 129.1C-128.1 109.6 -159.1 85.7 -169.1 55C-179.1 24.2 -168 -13.4 -144.3 -34.6C-120.5 -55.8 -84 -60.7 -57.9 -78.2C-31.7 -95.7 -15.9 -125.8 -0.6 -125C14.7 -124.2 29.4 -92.5 57.3 -75.5" fill="#27001c"></path></g></svg>