<svg id="visual" viewBox="0 0 400 400" width="400" height="400" xmlns="http://www.w3.org/2000/svg" xmlns:xlink="http://www.w3.org/1999/xlink" version="1.1"><rect x="0" y="0" width="400" height="400" fill="#fa7268"></rect><g transform="translate(199.73771869444602 181.52584968817837)"><path d="M61.7 -86.4C73.5 -76.2 72.4 -49.7 82.8 -25.2C93.2 -0.6 115.1 21.9 122.8 52.8C130.5 83.6 124 122.7 101.2 128C78.4 133.2 39.2 104.6 1.7 102.3C-35.9 100 -71.7 124 -94.9 118.9C-118 113.7 -128.4 79.4 -124.6 50.2C-120.8 20.9 -102.7 -3.3 -87 -21.1C-71.3 -38.8 -58 -50.2 -43.9 -59.6C-29.8 -69 -14.9 -76.5 5 -83.4C24.9 -90.2 49.8 -96.5 61.7 -86.4" fill="#27001c"></path></g></svg>