<svg id="visual" viewBox="0 0 400 400" width="400" height="400" xmlns="http://www.w3.org/2000/svg" xmlns:xlink="http://www.w3.org/1999/xlink" version="1.1"><rect x="0" y="0" width="400" height="400" fill="#fa7268"></rect><g transform="translate(202.8246778849827 222.62370862716585)"><path d="M57.5 -79.4C79.6 -63 106.4 -53.1 124.1 -32.4C141.7 -11.6 150.3 20 139.2 42.6C128.2 65.1 97.6 78.7 71.1 85.9C44.7 93.2 22.3 94.1 0.1 93.9C-22.1 93.8 -44.3 92.6 -76 87.1C-107.7 81.5 -148.9 71.7 -149.8 52.6C-150.6 33.5 -111 5.1 -96.7 -29.2C-82.4 -63.5 -93.5 -103.7 -81.6 -123.5C-69.8 -143.3 -34.9 -142.7 -8.6 -130.8C17.6 -118.9 35.3 -95.9 57.5 -79.4" fill="#27001c"></path></g></svg>