<svg id="visual" viewBox="0 0 960 300" width="960" height="300" xmlns="http://www.w3.org/2000/svg" xmlns:xlink="http://www.w3.org/1999/xlink" version="1.1"><rect x="0" y="0" width="960" height="300" fill="#27001c"></rect><path d="M0 221L12.3 219.8C24.7 218.7 49.3 216.3 74 214.2C98.7 212 123.3 210 148 203.2C172.7 196.3 197.3 184.7 221.8 181.2C246.3 177.7 270.7 182.3 295.2 185.5C319.7 188.7 344.3 190.3 369 191.5C393.7 192.7 418.3 193.3 443 194.2C467.7 195 492.3 196 517 193C541.7 190 566.3 183 591 183.7C615.7 184.3 640.3 192.7 664.8 198.7C689.3 204.7 713.7 208.3 738.2 212.8C762.7 217.3 787.3 222.7 812 226C836.7 229.3 861.3 230.7 886 224.7C910.7 218.7 935.3 205.3 947.7 198.7L960 192L960 0L947.7 0C935.3 0 910.7 0 886 0C861.3 0 836.7 0 812 0C787.3 0 762.7 0 738.2 0C713.7 0 689.3 0 664.8 0C640.3 0 615.7 0 591 0C566.3 0 541.7 0 517 0C492.3 0 467.7 0 443 0C418.3 0 393.7 0 369 0C344.3 0 319.7 0 295.2 0C270.7 0 246.3 0 221.8 0C197.3 0 172.7 0 148 0C123.3 0 98.7 0 74 0C49.3 0 24.7 0 12.3 0L0 0Z" fill="#c62368"></path><path d="M0 201L12.3 199C24.7 197 49.3 193 74 191.5C98.7 190 123.3 191 148 185.8C172.7 180.7 197.3 169.3 221.8 164C246.3 158.7 270.7 159.3 295.2 160.3C319.7 161.3 344.3 162.7 369 164.7C393.7 166.7 418.3 169.3 443 174.2C467.7 179 492.3 186 517 185C541.7 184 566.3 175 591 173.3C615.7 171.7 640.3 177.3 664.8 178.7C689.3 180 713.7 177 738.2 176.3C762.7 175.7 787.3 177.3 812 181.2C836.7 185 861.3 191 886 188.2C910.7 185.3 935.3 173.7 947.7 167.8L960 162L960 0L947.7 0C935.3 0 910.7 0 886 0C861.3 0 836.7 0 812 0C787.3 0 762.7 0 738.2 0C713.7 0 689.3 0 664.8 0C640.3 0 615.7 0 591 0C566.3 0 541.7 0 517 0C492.3 0 467.7 0 443 0C418.3 0 393.7 0 369 0C344.3 0 319.7 0 295.2 0C270.7 0 246.3 0 221.8 0C197.3 0 172.7 0 148 0C123.3 0 98.7 0 74 0C49.3 0 24.7 0 12.3 0L0 0Z" fill="#d03267"></path><path d="M0 156L12.3 151.2C24.7 146.3 49.3 136.7 74 134C98.7 131.3 123.3 135.7 148 135.8C172.7 136 197.3 132 221.8 133.7C246.3 135.3 270.7 142.7 295.2 143.3C319.7 144 344.3 138 369 136.3C393.7 134.7 418.3 137.3 443 141.8C467.7 146.3 492.3 152.7 517 157.5C541.7 162.3 566.3 165.7 591 163C615.7 160.3 640.3 151.7 664.8 144.5C689.3 137.3 713.7 131.7 738.2 135.5C762.7 139.3 787.3 152.7 812 153.5C836.7 154.3 861.3 142.7 886 136.3C910.7 130 935.3 129 947.7 128.5L960 128L960 0L947.7 0C935.3 0 910.7 0 886 0C861.3 0 836.7 0 812 0C787.3 0 762.7 0 738.2 0C713.7 0 689.3 0 664.8 0C640.3 0 615.7 0 591 0C566.3 0 541.7 0 517 0C492.3 0 467.7 0 443 0C418.3 0 393.7 0 369 0C344.3 0 319.7 0 295.2 0C270.7 0 246.3 0 221.8 0C197.3 0 172.7 0 148 0C123.3 0 98.7 0 74 0C49.3 0 24.7 0 12.3 0L0 0Z" fill="#da3f67"></path><path d="M0 101L12.3 104.2C24.7 107.3 49.3 113.7 74 113.7C98.7 113.7 123.3 107.3 148 107.2C172.7 107 197.3 113 221.8 112.5C246.3 112 270.7 105 295.2 106.2C319.7 107.3 344.3 116.7 369 121.8C393.7 127 418.3 128 443 126.8C467.7 125.7 492.3 122.3 517 119.2C541.7 116 566.3 113 591 112.8C615.7 112.7 640.3 115.3 664.8 115.2C689.3 115 713.7 112 738.2 113.7C762.7 115.3 787.3 121.7 812 120.3C836.7 119 861.3 110 886 106.5C910.7 103 935.3 105 947.7 106L960 107L960 0L947.7 0C935.3 0 910.7 0 886 0C861.3 0 836.7 0 812 0C787.3 0 762.7 0 738.2 0C713.7 0 689.3 0 664.8 0C640.3 0 615.7 0 591 0C566.3 0 541.7 0 517 0C492.3 0 467.7 0 443 0C418.3 0 393.7 0 369 0C344.3 0 319.7 0 295.2 0C270.7 0 246.3 0 221.8 0C197.3 0 172.7 0 148 0C123.3 0 98.7 0 74 0C49.3 0 24.7 0 12.3 0L0 0Z" fill="#e34c67"></path><path d="M0 84L12.3 84C24.7 84 49.3 84 74 81.3C98.7 78.7 123.3 73.3 148 75.7C172.7 78 197.3 88 221.8 91.8C246.3 95.7 270.7 93.3 295.2 92.3C319.7 91.3 344.3 91.7 369 90.5C393.7 89.3 418.3 86.7 443 84.3C467.7 82 492.3 80 517 81.3C541.7 82.7 566.3 87.3 591 88C615.7 88.7 640.3 85.3 664.8 84.7C689.3 84 713.7 86 738.2 86.3C762.7 86.7 787.3 85.3 812 87.5C836.7 89.7 861.3 95.3 886 94C910.7 92.7 935.3 84.3 947.7 80.2L960 76L960 0L947.7 0C935.3 0 910.7 0 886 0C861.3 0 836.7 0 812 0C787.3 0 762.7 0 738.2 0C713.7 0 689.3 0 664.8 0C640.3 0 615.7 0 591 0C566.3 0 541.7 0 517 0C492.3 0 467.7 0 443 0C418.3 0 393.7 0 369 0C344.3 0 319.7 0 295.2 0C270.7 0 246.3 0 221.8 0C197.3 0 172.7 0 148 0C123.3 0 98.7 0 74 0C49.3 0 24.7 0 12.3 0L0 0Z" fill="#eb5967"></path><path d="M0 76L12.3 75C24.7 74 49.3 72 74 70.7C98.7 69.3 123.3 68.7 148 70.3C172.7 72 197.3 76 221.8 77C246.3 78 270.7 76 295.2 75C319.7 74 344.3 74 369 72.7C393.7 71.3 418.3 68.7 443 67.5C467.7 66.3 492.3 66.7 517 63.3C541.7 60 566.3 53 591 53.2C615.7 53.3 640.3 60.7 664.8 62C689.3 63.3 713.7 58.7 738.2 56.2C762.7 53.7 787.3 53.3 812 56C836.7 58.7 861.3 64.3 886 67.2C910.7 70 935.3 70 947.7 70L960 70L960 0L947.7 0C935.3 0 910.7 0 886 0C861.3 0 836.7 0 812 0C787.3 0 762.7 0 738.2 0C713.7 0 689.3 0 664.8 0C640.3 0 615.7 0 591 0C566.3 0 541.7 0 517 0C492.3 0 467.7 0 443 0C418.3 0 393.7 0 369 0C344.3 0 319.7 0 295.2 0C270.7 0 246.3 0 221.8 0C197.3 0 172.7 0 148 0C123.3 0 98.7 0 74 0C49.3 0 24.7 0 12.3 0L0 0Z" fill="#f36567"></path><path d="M0 49L12.3 45.5C24.7 42 49.3 35 74 29.5C98.7 24 123.3 20 148 18.7C172.7 17.3 197.3 18.7 221.8 21.2C246.3 23.7 270.7 27.3 295.2 28.7C319.7 30 344.3 29 369 30.7C393.7 32.3 418.3 36.7 443 39.2C467.7 41.7 492.3 42.3 517 39.5C541.7 36.7 566.3 30.3 591 31.3C615.7 32.3 640.3 40.7 664.8 41.3C689.3 42 713.7 35 738.2 30.3C762.7 25.7 787.3 23.3 812 23C836.7 22.7 861.3 24.3 886 26.7C910.7 29 935.3 32 947.7 33.5L960 35L960 0L947.7 0C935.3 0 910.7 0 886 0C861.3 0 836.7 0 812 0C787.3 0 762.7 0 738.2 0C713.7 0 689.3 0 664.8 0C640.3 0 615.7 0 591 0C566.3 0 541.7 0 517 0C492.3 0 467.7 0 443 0C418.3 0 393.7 0 369 0C344.3 0 319.7 0 295.2 0C270.7 0 246.3 0 221.8 0C197.3 0 172.7 0 148 0C123.3 0 98.7 0 74 0C49.3 0 24.7 0 12.3 0L0 0Z" fill="#fa7268"></path></svg>